<svg width="165" height="160" viewBox="0 0 165 160" fill="none" xmlns="http://www.w3.org/2000/svg">
<g clip-path="url(#clip0_1384_24853)">
<path d="M94.4623 4.02752C103.616 -3.29514 116.43 5.53192e-05 122.654 10.984L161.098 78.7186C167.323 89.7026 164.76 104.348 155.606 111.671L97.3913 155.606C88.238 162.929 75.4234 159.634 69.1991 149.016L31.1213 81.2815C24.8971 70.2975 27.46 55.6522 36.6133 48.3296L94.4623 4.02752Z" fill="#D9B033"/>
<path d="M100.32 0.732265C100.687 0.732265 101.053 0.366133 101.419 0.366133C102.151 0.366133 102.883 0 103.616 0C103.982 0 104.714 0 105.08 0L77.254 0.366133C76.8879 0.366133 76.8879 0.366133 76.5218 0.366133C76.1556 0.366133 76.1556 0.366133 75.7895 0.366133C75.0572 0.366133 74.325 0.732265 73.5927 0.732265C73.2266 0.732265 73.2266 0.732265 72.8604 0.732265C72.8604 0.732265 72.4943 0.732265 72.4943 1.0984C71.762 1.46453 71.0298 1.46453 70.2975 1.83066C69.9314 1.83066 69.5652 2.1968 69.1991 2.1968C68.1007 2.56293 67.3685 3.29519 66.2701 4.02746L9.15335 48.6957C8.42109 49.4279 7.68882 49.794 6.95656 50.5263L6.59042 50.8924C5.85816 51.6247 5.49202 52.357 4.75976 53.0892C4.02749 54.1876 3.29523 55.286 2.9291 56.0183C2.9291 56.0183 2.9291 56.0183 2.9291 56.3844C2.9291 56.3844 2.9291 56.3844 2.9291 56.7506C2.56296 57.4828 2.19683 58.5812 1.8307 59.3135V59.6796C1.46457 60.4119 1.46457 61.1442 1.09843 61.8764V62.2426V62.6087C1.09843 63.341 0.7323 64.0732 0.7323 64.8055V65.1716C0.7323 66.27 0.7323 67.0023 0.7323 68.1007V68.4668V68.8329C0.7323 69.9313 0.7323 71.0297 1.09843 72.1281C1.09843 72.4943 1.09843 72.8604 1.46457 73.2265C1.46457 73.5927 1.46457 73.9588 1.8307 74.3249C1.8307 74.6911 2.19683 75.0572 2.19683 75.7895C2.19683 76.1556 2.19683 76.5217 2.56296 76.5217C2.56296 76.8879 2.9291 77.6201 2.9291 77.9863C2.9291 78.3524 3.29523 78.3524 3.29523 78.7185C3.66136 79.4508 4.02749 80.1831 4.39363 80.9153L42.8376 148.65C46.865 155.606 53.4554 159.268 60.0458 159.268L87.8719 158.902C81.2815 158.902 74.6911 155.24 70.6636 148.284L31.1213 81.2815C30.7552 80.5492 30.389 79.8169 30.0229 79.0847C30.0229 78.7185 30.0229 78.7185 29.6568 78.3524C29.6568 77.9863 29.2907 77.254 29.2907 76.8879C29.2907 76.5217 29.2907 76.1556 28.9245 76.1556C28.9245 75.7895 28.5584 75.4233 28.5584 74.6911C28.5584 74.3249 28.5584 73.9588 28.1923 73.5927C28.1923 73.2265 27.8261 72.8604 27.8261 72.4943C27.46 71.3959 27.46 70.2975 27.46 69.1991C27.46 68.8329 27.46 68.833 27.46 68.4668C27.46 67.3684 27.46 66.6362 27.46 65.5378V65.1716C27.46 64.4394 27.8261 63.7071 27.8261 62.9748C27.8261 62.6087 27.8261 62.6087 27.8261 62.2426C27.8261 61.5103 28.1923 60.778 28.5584 60.0458C28.5584 59.6796 28.5584 59.6796 28.9245 59.3135C29.2907 58.5812 29.6568 57.4828 30.0229 56.7506C30.0229 56.7506 30.0229 56.3844 30.3891 56.3844C30.7552 55.286 31.4874 54.1876 32.2197 53.4554C32.5858 52.7231 33.3181 51.9908 34.0504 51.2586L34.4165 50.8924C35.1488 50.1602 35.881 49.4279 36.6133 49.0618L94.4623 4.02746C95.5607 3.29519 96.2929 2.56293 97.3913 2.1968C97.7575 2.1968 98.1236 1.83066 98.4897 1.83066C98.8559 1.46453 99.5881 1.0984 100.32 0.732265Z" fill="#836711"/>
<path d="M90.4348 62.9748C81.6476 69.9313 78.7185 83.1121 84.2105 92.9977C89.7025 102.517 101.419 105.08 110.206 98.1236C118.993 91.167 121.922 77.9863 116.43 68.1007C110.938 58.5812 99.222 56.0183 90.4348 62.9748ZM106.911 91.8993C101.053 96.2929 93.73 94.8284 90.0686 88.6041C86.4073 82.3799 88.238 73.5927 94.0961 69.1991C99.9542 64.8055 107.277 66.27 110.938 72.4943C114.6 78.7185 112.769 87.5057 106.911 91.8993ZM110.572 46.4988C112.037 48.6956 111.304 51.9908 109.108 53.4554C106.911 54.9199 104.348 54.5538 102.883 52.357C101.419 50.1602 102.151 46.865 104.348 45.4004C106.545 43.5698 109.108 44.302 110.572 46.4988ZM123.753 42.4714C121.556 38.8101 119.725 36.9794 117.529 35.1487C115.332 33.6842 113.135 32.5858 110.572 31.8535C107.643 31.4874 105.446 31.4874 102.883 32.2197C99.9542 32.9519 97.3913 34.4165 94.0961 36.6133C90.8009 39.1762 89.7025 39.9085 80.9153 46.4988C72.4943 53.0892 71.3959 53.8215 68.1007 56.7506C64.8055 59.3135 62.9748 61.8764 61.5103 64.0732C60.0458 66.6361 58.9474 69.1991 58.2151 72.1281C57.4828 75.4233 57.4828 77.9863 58.2151 80.9153C58.5812 83.8444 59.6796 86.4073 61.5103 90.4348C63.3409 94.0961 64.0732 95.1945 69.1991 104.714C74.3249 113.867 75.0572 114.966 77.254 118.627C79.4508 122.288 81.2815 124.119 83.4782 125.95C85.675 127.414 87.8718 128.513 90.4348 129.245C93.3638 129.611 95.5606 129.611 98.1236 128.879C100.686 128.146 103.249 127.048 106.545 124.485C109.84 121.922 110.938 121.19 119.725 114.6C128.146 108.009 129.245 107.277 132.54 104.348C135.835 101.785 137.666 99.222 139.13 97.0252C140.595 94.4622 141.693 91.8993 142.426 88.9702C143.158 85.675 143.158 83.1121 142.426 80.183C142.059 77.254 140.961 74.6911 139.13 70.6636C137.3 67.0023 136.567 65.9039 131.442 56.3844C126.316 46.865 125.95 45.7666 123.753 42.4714ZM133.638 74.6911C135.469 77.9863 135.835 80.183 136.201 82.0137C136.567 84.2105 136.567 85.675 136.201 87.8718C135.835 90.0686 135.103 91.5332 134.005 93.3638C133.272 94.8284 131.808 96.659 128.879 98.8558C125.584 101.419 124.851 102.517 116.43 108.741C108.009 115.332 106.911 116.064 103.616 118.261C100.32 120.458 98.4897 121.19 97.0252 121.556C95.1945 121.922 93.73 122.288 91.8993 121.922C90.0686 121.556 88.9702 120.824 87.5057 119.725C86.4073 118.993 84.9428 117.529 82.746 114.233C80.5492 110.938 79.8169 109.84 74.6911 100.686C69.5652 91.5332 68.8329 90.4348 67.0023 86.7734C65.1716 83.4782 64.8055 81.2815 64.4394 79.4508C64.0732 77.254 64.0732 75.7895 64.4394 73.5927C64.8055 71.3959 65.5378 69.9313 66.6361 68.1007C67.3684 66.6361 68.8329 64.8055 71.762 62.6087C75.0572 60.0458 75.7895 58.9474 84.2105 52.7231C92.6316 46.1327 93.73 45.4004 97.0252 43.2036C100.32 41.0069 102.151 40.2746 103.616 39.9085C105.446 39.5423 106.911 39.1762 108.741 39.5423C110.572 39.9085 111.67 40.6407 113.135 41.7391C114.233 42.4714 115.698 43.9359 117.895 47.2311C120.092 50.5263 120.824 51.6247 125.95 60.778C131.442 69.9313 131.808 71.0297 133.638 74.6911Z" fill="white"/>
</g>
<defs>
<clipPath id="clip0_1384_24853">
<rect width="164.027" height="160" fill="white"/>
</clipPath>
</defs>
</svg>
