<svg width="157" height="160" viewBox="0 0 157 160" fill="none" xmlns="http://www.w3.org/2000/svg">
<g clip-path="url(#clip0_1384_24849)">
<path d="M62.9565 8.34773C68.8696 -1.39141 81.0435 -2.78271 90.087 4.52164L147.478 51.1303C156.87 58.7825 159.652 72.3477 153.739 82.0869L118.261 141.565C112.348 151.304 100.174 152.696 91.1304 145.391L33.7391 98.7825C24.3478 91.1303 21.5652 77.5651 27.4783 67.826L62.9565 8.34773Z" fill="#D9B033"/>
<path d="M67.1304 3.47824C67.4783 3.13041 67.8261 3.13041 67.8261 2.78259C68.5217 2.43476 69.2174 2.08694 69.5652 1.73911C69.913 1.39128 70.2609 1.39128 70.6087 1.04346L46.2609 11.1304C45.913 11.1304 45.913 11.4782 45.5652 11.4782C45.2174 11.4782 45.2174 11.8261 44.8696 11.8261C44.1739 12.1739 43.4783 12.5217 43.1304 12.8695C43.1304 12.8695 42.7826 12.8695 42.7826 13.2174L42.4348 13.5652C41.7391 13.913 41.3913 14.6087 40.6957 14.9565C40.3478 15.3043 40.3478 15.3043 40 15.6522C39.3043 16.3478 38.6087 17.3913 37.913 18.4348L2.43479 77.5652C2.08696 78.2608 1.73913 79.3043 1.04348 80C1.04348 80.3478 0.695656 80.3478 0.695656 80.6956C0.34783 81.3913 3.96811e-06 82.4348 3.96811e-06 83.1304C-0.347822 84.1739 -0.347822 85.2174 -0.695648 86.6087C3.96811e-06 86.9565 3.96811e-06 86.9565 3.96811e-06 86.9565C3.96811e-06 86.9565 3.96811e-06 86.9565 3.96811e-06 87.3043C3.96811e-06 88.3478 3.96811e-06 89.0435 3.96811e-06 90.0869V90.4348C3.96811e-06 91.1304 3.99403e-06 91.8261 0.34783 92.5217V92.8695V93.2174C0.34783 93.913 0.695656 94.6087 0.695656 95.3043V95.6522C1.04348 96.6956 1.39131 97.3913 1.73913 98.0869V98.4348V98.7826C2.08696 99.8261 2.78261 100.87 3.13044 101.565C3.47826 101.913 3.47826 102.261 3.82609 102.609C3.82609 102.956 4.17392 103.304 4.17392 103.304C4.52174 103.652 4.86957 104 4.86957 104.348C5.2174 104.696 5.2174 104.696 5.56522 105.043C5.91305 105.391 6.26087 105.739 6.6087 106.087C6.95653 106.435 6.95653 106.435 7.30435 106.783C8 107.13 8.34783 107.826 9.04348 108.174L66.4348 154.783C72.3478 159.652 79.6522 160.696 85.5652 158.261L109.913 148.174C104 150.609 96.6957 149.565 90.7826 144.696L33.7391 98.7826C33.0435 98.4348 32.6957 97.7391 32 97.3913L31.6522 97.0435C31.3044 96.6956 30.9565 96.3478 30.6087 96C30.2609 95.6522 30.2609 95.6522 29.913 95.3043C29.5652 94.9565 29.2174 94.6087 29.2174 94.2608C28.8696 93.913 28.8696 93.5652 28.5217 93.5652C28.1739 93.2174 28.1739 92.8695 27.8261 92.5217C27.1304 91.4782 26.7826 90.4348 26.4348 89.7391C26.4348 89.3913 26.4348 89.3913 26.087 89.0435C25.7391 88.3478 25.3913 87.3043 25.0435 86.6087V86.2608C24.6957 85.5652 24.6957 84.8695 24.6957 84.1739C24.6957 83.8261 24.6957 83.8261 24.6957 83.4782C24.3478 82.0869 24.3478 81.3913 24.3478 80.6956C24.3478 80.3478 24.3478 80.3478 24.3478 80C24.3478 78.9565 24.3478 78.2609 24.3478 77.2174V76.8695C24.3478 75.8261 24.6957 74.4348 25.0435 73.3913C25.0435 73.3913 25.0435 73.3913 25.0435 73.0435C25.3913 72.3478 25.3913 71.3043 25.7391 70.6087C25.7391 70.2608 25.7391 70.2609 26.087 69.913C26.4348 69.2174 26.7826 68.1739 27.4783 67.4782L62.9565 8.34781C63.6522 7.30433 64.3478 6.60867 65.0435 5.5652C65.3913 5.21737 65.3913 5.21737 65.7391 4.86954C66.087 4.52172 66.4348 4.17389 67.1304 3.47824Z" fill="#856811"/>
<path d="M99.4783 40.6956C99.8261 41.0434 100.522 41.3912 100.87 41.739C116.174 53.913 124.522 79.6521 107.826 100.174C102.609 106.435 96 110.956 88.6956 113.043C89.3913 112.348 90.4348 111.304 91.1304 110.609C95.3043 105.391 97.3913 99.1303 97.3913 92.5217C93.2174 97.3912 86.6087 98.7825 81.0435 96.6956C81.7391 95.9999 82.4348 95.3043 83.1304 94.6086C83.8261 93.5651 84.5217 92.5216 85.2174 91.4782C80 95.6521 72.3478 95.9999 66.7826 91.4782C68.8696 90.7825 70.9565 89.3912 72.3478 87.6521C67.8261 89.0434 62.6087 87.9999 58.7826 84.8695C56.6956 83.1303 55.3043 81.0434 54.2609 78.6086C65.7391 78.6086 76.8696 74.0869 84.8696 65.0434C83.8261 64.6956 82.7826 63.9999 82.087 63.3043C75.8261 58.0869 74.7826 49.0434 79.6522 42.7825C82.4348 39.6521 85.913 37.913 90.0869 37.5651C91.4783 34.4347 92.5217 31.3043 93.2174 28.1738C95.3043 31.3043 96 34.7825 95.6522 38.2608C97.0435 35.826 98.4348 33.0434 99.1304 30.2608C99.1304 33.739 99.4783 37.2173 99.4783 40.6956Z" fill="white"/>
</g>
<defs>
<clipPath id="clip0_1384_24849">
<rect width="156.87" height="160" fill="white"/>
</clipPath>
</defs>
</svg>
