<svg width="150" height="42" viewBox="0 0 150 42" fill="none" xmlns="http://www.w3.org/2000/svg">
<path fill-rule="evenodd" clip-rule="evenodd" d="M0 16.6071V33.2143L14.8393 33.2312C23.001 33.2404 30.45 33.2477 31.3929 33.2475L33.1071 33.2471L33.162 16.6234L33.2169 0H16.6084H0V16.6071ZM25.7143 16.7143V25.7143H16.7143H7.71429V16.7143V7.71429H16.7143H25.7143V16.7143ZM96.2085 10.0464C92.0421 11.1714 88.5641 14.5639 87.5051 18.5357C87.1074 20.0271 87.1348 23.4375 87.5561 24.8717C88.3605 27.6101 90.5488 30.474 92.8671 31.8223C96.684 34.0423 101.65 34.2354 105.58 32.3169C107.462 31.3982 110.262 28.6841 111.067 27C112.696 23.5894 112.695 19.6836 111.064 16.2857C110.365 14.8294 107.711 12.1241 106.071 11.1971C103.41 9.69236 99.297 9.21236 96.2085 10.0464ZM53.6786 10.1591C52.1754 10.5315 50.9659 11.2024 50.1761 12.102L49.5 12.8721V11.5789V10.2857H46.1786H42.8571V25.9286V41.5714H46.1786H49.5V36.0283V30.4849L50.4107 31.3892C51.7624 32.7315 53.3659 33.2766 56.0357 33.3015C59.3389 33.3321 61.3367 32.6136 63.5434 30.6009C67.521 26.973 68.6083 21.0225 66.192 16.1036C65.3237 14.3361 63.1556 12.0424 61.5381 11.1804C59.2386 9.95486 56.1321 9.55114 53.6786 10.1591ZM81.1071 10.2469C80.3537 10.4923 79.6699 10.9584 78.8036 11.8166L77.5714 13.0371V11.6614V10.2857H74.25H70.9286V21.6429V33H74.25H77.5714V27.1176C77.5714 23.6745 77.6685 20.7829 77.8054 20.1441C78.1101 18.723 79.1289 17.4114 80.46 16.7261C81.3973 16.2435 81.7843 16.1786 83.7257 16.1786H85.9281L85.9284 13.0179L85.9286 9.85714L84.0536 9.87771C82.9584 9.8895 81.7329 10.0431 81.1071 10.2469ZM126.214 10.0457C125.072 10.4196 123.895 11.1501 123.248 11.8877L122.571 12.6579V11.4718V10.2857H119.143H115.714V21.6429V33H119.132H122.55L122.615 25.6607C122.678 18.429 122.686 18.3099 123.171 17.5286C124.523 15.3549 127.355 15.1684 128.824 17.1561C129.491 18.0581 129.643 19.7934 129.643 26.4934V33H132.964H136.286V26.181C136.286 18.5237 136.381 17.8821 137.694 16.7297C139.655 15.0077 142.463 15.7549 143.136 18.1776C143.264 18.6381 143.355 21.8745 143.356 25.9821L143.357 33H146.679H150V24.8796C150 17.2474 149.973 16.6723 149.552 15.309C149.013 13.5645 148.398 12.5456 147.304 11.5849C145.908 10.3588 144.815 9.99471 142.241 9.89721C139.008 9.77486 137.372 10.2763 135.691 11.9038C135.028 12.546 134.427 12.9992 134.356 12.9107C134.285 12.8224 133.978 12.4099 133.675 11.9944C133.371 11.5789 132.605 10.9558 131.972 10.6095C130.96 10.0558 130.576 9.9735 128.786 9.92529C127.666 9.89507 126.509 9.94929 126.214 10.0457ZM102.201 16.2793C104.35 17.3751 105.52 19.266 105.512 21.6281C105.504 24.0399 104.376 25.8973 102.302 26.9117C98.3751 28.833 93.8571 25.9564 93.8571 21.5351C93.8571 18.9287 95.8001 16.5231 98.4643 15.8306C99.4153 15.5835 101.275 15.8068 102.201 16.2793ZM57.9744 16.8161C60.9437 18.5561 61.5726 22.7117 59.2781 25.4297C57.5008 27.5351 53.7071 27.8443 51.3851 26.0732C50.8836 25.6909 50.1834 24.9088 49.8289 24.3354C49.26 23.4154 49.1841 23.1009 49.1841 21.6626C49.1841 20.2755 49.2711 19.884 49.7666 19.0386C51.4701 16.1316 55.1201 15.1434 57.9744 16.8161Z" fill="#111111"/>
</svg>
