<svg width="120" height="70" viewBox="0 0 120 70" fill="none" xmlns="http://www.w3.org/2000/svg">
<path fill-rule="evenodd" clip-rule="evenodd" d="M96.4566 1.71543e-05V52.4923H84.0016V2.62464L96.4566 1.71543e-05ZM60.9946 57.467C64.434 57.467 67.222 60.232 67.222 63.6426C67.222 67.0532 64.434 69.8182 60.9946 69.8182C57.5553 69.8182 54.7671 67.0532 54.7671 63.6426C54.7671 60.232 57.5553 57.467 60.9946 57.467ZM60.9946 14.9071C71.5987 14.9071 80.2134 23.4329 80.2134 33.9657C80.2134 44.4984 71.5985 53.0241 60.9946 53.0241C50.3733 53.0241 41.7759 44.4984 41.7759 33.9657C41.7759 23.4329 50.3906 14.9071 60.9946 14.9071ZM60.9946 40.1411C64.437 40.1411 67.222 37.3793 67.222 33.9657C67.222 30.5519 64.437 27.7901 60.9946 27.7901C57.5522 27.7901 54.7671 30.5519 54.7671 33.9657C54.7671 37.3793 57.5522 40.1411 60.9946 40.1411ZM21.8135 40.1411C23.9585 40.1411 25.7057 38.4086 25.7057 36.2814C25.7057 34.1544 23.9585 32.4216 21.8135 32.4216H12.4722V40.1411H21.8135ZM12.4722 12.3511V20.0706H19.3917C21.5366 20.0706 23.2838 18.3379 23.2838 16.2109C23.2838 14.0837 21.5366 12.3511 19.3917 12.3511H12.4722ZM33.2823 24.7366C36.2924 27.6871 38.1605 31.7699 38.1432 36.2814C38.1432 45.2361 30.8261 52.4923 21.7962 52.4923H0V0H19.3744C28.4043 0 35.7214 7.25629 35.7214 16.2109C35.7214 19.333 34.8393 22.2664 33.2823 24.7366ZM119.983 27.9617H113.773V37.6538C113.773 40.5872 114.724 42.7486 117.215 42.7486C118.824 42.7486 120 42.3884 120 42.3884V51.4803C120 51.4803 117.422 53.0241 113.928 53.0241H113.773C113.617 53.0241 113.478 53.007 113.323 53.007H113.201C113.132 53.007 113.046 52.9897 112.977 52.9897C106.023 52.6295 101.3 48.2894 101.3 40.7588V8.80018L113.755 6.17556V15.6105H119.983V27.9617Z" fill="white"/>
</svg>
