<svg width="100" height="100" viewBox="0 0 100 100" fill="none" xmlns="http://www.w3.org/2000/svg">
<path d="M99.9993 50.2422C99.8542 77.8581 77.4065 100.145 49.7823 99.9993C22.1581 99.9024 -0.144431 77.3736 0.000704363 49.7578C0.14584 22.1419 22.6419 -0.14464 50.2177 0.000706912C77.8419 0.146054 100.144 22.6264 99.9993 50.2422Z" fill="#111111"/>
<path d="M28.634 39.5786C30.1602 39.9274 31.8607 38.0524 32.4276 35.3926C32.9944 32.7763 32.2532 30.3345 30.727 30.0293C29.6805 29.8112 28.5904 30.5961 27.8056 31.9042C28.5032 32.2531 28.8521 33.1252 28.5032 33.8664C28.198 34.5205 27.5003 34.9129 26.8027 34.7385C26.4974 37.1803 27.2387 39.2733 28.634 39.5786ZM21.3086 34.0408C22.5295 27.5002 26.323 22.7474 29.7677 23.4015C33.2125 24.0555 35.0002 29.8985 33.7793 36.4391C32.5584 42.9797 28.7648 47.7325 25.3201 47.0784C21.8754 46.4244 20.0876 40.5814 21.3086 34.0408ZM80.9153 39.5786C42.4129 65.3049 15.9453 52.2673 15.9453 52.2673C15.5528 61.2062 30.8578 88.6767 49.1715 89.0255C67.4852 89.3308 80.9153 39.5786 80.9153 39.5786ZM25.0585 48.1685C29.0701 48.9534 33.4741 43.7645 34.8258 36.6571C36.1775 29.5496 33.9973 23.1398 29.9858 22.355C25.9742 21.5701 21.6138 26.759 20.2621 33.8664C18.8667 40.9739 21.0469 47.3837 25.0585 48.1685ZM38.881 44.5058C40.2327 42.9797 41.7588 41.5407 43.5466 40.189C51.4825 34.0844 60.2034 32.5583 62.994 36.7879C64.0841 38.4448 64.1277 40.7123 63.2992 43.1977C66.1335 38.5321 67.0492 34.2153 65.2614 31.817C62.34 27.8491 53.2267 30.5525 44.9419 37.9216C42.5873 40.0146 40.5379 42.282 38.881 44.5058ZM47.7326 25.0148C54.0988 20.698 65.0434 18.3434 70.8863 27.3258C67.3544 6.6575 52.093 18.5614 47.7326 25.0148ZM93.9529 50.2179C93.8221 74.4182 74.113 93.9092 49.8692 93.822C25.6254 93.6912 6.22156 73.9821 6.22156 49.8255C6.22156 34.128 14.0267 22.8782 21.483 16.8172C30.5962 9.40456 36.788 15.1167 38.9682 19.3899C38.7066 17.5585 37.9653 12.326 35.9159 8.53247C40.4071 7.00633 45.2036 6.17786 50.218 6.17786C74.5055 6.30867 94.0401 26.0177 93.9529 50.2179ZM66.2643 72.3252C61.5115 80.8716 55.5813 87.8482 48.9535 87.7174C44.8547 87.6302 40.9304 86.0604 37.3112 83.6622C38.5758 81.5256 45.7268 71.1043 66.2643 72.3252Z" fill="white"/>
</svg>
