<svg width="160" height="48" viewBox="0 0 160 48" fill="none" xmlns="http://www.w3.org/2000/svg">
<path d="M59.1322 39.9052C57.309 39.8805 55.5338 39.3173 54.0299 38.2864C52.526 37.2555 51.3604 35.8029 50.6798 34.1114C49.9992 32.4199 49.8339 30.5649 50.2047 28.7796C50.5755 26.9944 51.4658 25.3587 52.7638 24.0781C54.0617 22.7975 55.7093 21.9293 57.4994 21.5826C59.2895 21.2358 61.1421 21.4261 62.8243 22.1295C64.5065 22.8328 65.9432 24.0178 66.9537 25.5355C67.9643 27.0532 68.5035 28.8358 68.5037 30.6591C68.4967 31.8819 68.2486 33.0913 67.7736 34.2181C67.2986 35.3449 66.606 36.367 65.7355 37.2258C64.8651 38.0846 63.8338 38.7633 62.7007 39.2231C61.5676 39.6829 60.3549 39.9147 59.1322 39.9052ZM75.2591 21.9864C73.6794 19.4029 71.4158 17.3067 68.7187 15.9298C65.7577 14.3997 62.4648 13.6242 59.1322 13.6721C55.832 13.6162 52.5674 14.3601 49.6173 15.8402C46.8734 17.2125 44.575 19.335 42.9891 21.9613C41.4032 24.5875 40.5948 27.6098 40.6578 30.677C40.5983 33.7413 41.4083 36.7597 42.994 39.3825C44.5797 42.0052 46.8761 44.1249 49.6173 45.4959C52.5674 46.9761 55.832 47.72 59.1322 47.6641C62.4211 47.722 65.6746 46.9779 68.6112 45.4959C71.351 44.1185 73.6458 41.9949 75.231 39.3698C76.8161 36.7447 77.6272 33.7251 77.5706 30.6591C77.6352 27.5739 76.8345 24.5323 75.2591 21.8789" fill="white"/>
<path d="M18.2593 39.7977C15.791 39.7836 13.4283 38.7943 11.6863 37.0455C9.94428 35.2968 8.96411 32.9304 8.95942 30.462C8.95587 28.6077 9.50249 26.7941 10.5301 25.2506C11.5577 23.7071 13.0201 22.5031 14.7322 21.7911C16.4443 21.079 18.3292 20.8909 20.1483 21.2504C21.9673 21.61 23.6389 22.5012 24.9513 23.8111C26.2637 25.121 27.1581 26.7908 27.5211 28.6092C27.8842 30.4276 27.6996 32.3128 26.9909 34.0263C26.2821 35.7398 25.0809 37.2045 23.5394 38.235C21.9979 39.2656 20.1852 39.8156 18.331 39.8157M34.4579 21.4309C33.0576 18.8989 30.9788 16.8076 28.4551 15.3923C25.8485 13.9615 22.917 13.2271 19.9437 13.2599C16.2709 13.2709 12.7119 14.5352 9.85536 16.8437V0H0V47.1803H9.28196V43.3098C10.5864 44.7953 12.2152 45.9607 14.0423 46.7158C15.8693 47.4709 17.8457 47.7953 19.8182 47.6641C22.7925 47.7051 25.7261 46.9702 28.3297 45.5318C30.8679 44.0973 32.9536 41.9806 34.3504 39.4214C35.8305 36.6707 36.5772 33.5851 36.5186 30.462C36.5788 27.3387 35.832 24.2528 34.3504 21.5026" fill="white"/>
<path d="M141.559 39.9052C139.736 39.8805 137.96 39.3173 136.457 38.2864C134.953 37.2555 133.787 35.8029 133.106 34.1114C132.426 32.4199 132.261 30.5649 132.631 28.7796C133.002 26.9944 133.892 25.3587 135.19 24.0781C136.488 22.7975 138.136 21.9293 139.926 21.5826C141.716 21.2358 143.569 21.4261 145.251 22.1295C146.933 22.8328 148.37 24.0178 149.38 25.5355C150.391 27.0532 150.93 28.8358 150.93 30.6591C150.923 31.8819 150.675 33.0913 150.2 34.2181C149.725 35.3449 149.033 36.367 148.162 37.2258C147.292 38.0846 146.26 38.7633 145.127 39.2231C143.994 39.6829 142.782 39.9147 141.559 39.9052ZM157.686 21.9864C156.099 19.4022 153.829 17.3063 151.127 15.9298C148.174 14.3977 144.886 13.6219 141.559 13.6721C138.259 13.6162 134.994 14.3601 132.044 15.8402C129.3 17.2125 127.002 19.335 125.416 21.9613C123.83 24.5875 123.021 27.6098 123.084 30.677C123.025 33.7413 123.835 36.7597 125.421 39.3825C127.006 42.0052 129.303 44.1249 132.044 45.4959C135.006 46.9233 138.252 47.6646 141.541 47.6646C144.829 47.6646 148.075 46.9233 151.038 45.4959C153.778 44.1185 156.072 41.9949 157.658 39.3698C159.243 36.7447 160.054 33.7251 159.997 30.6591C160.046 27.5687 159.226 24.5268 157.632 21.8789" fill="white"/>
<path d="M90.8306 30.462C90.7986 28.5779 91.3278 26.7269 92.3509 25.1445C93.374 23.562 94.8447 22.3197 96.576 21.5756C98.3072 20.8315 100.221 20.6192 102.073 20.9658C103.925 21.3124 105.632 22.2021 106.977 23.5219C108.322 24.8416 109.245 26.5316 109.626 28.3769C110.008 30.2222 109.832 32.1394 109.121 33.8844C108.41 35.6295 107.196 37.1236 105.633 38.1766C104.07 39.2296 102.23 39.7939 100.345 39.7977C99.1077 39.8096 97.8797 39.5774 96.7317 39.1147C95.5836 38.6519 94.5379 37.9675 93.6544 37.1006C92.7708 36.2337 92.0667 35.2012 91.5822 34.0622C91.0977 32.9231 90.8423 31.6998 90.8306 30.462ZM81.8711 30.462C81.8112 33.5897 82.571 36.6786 84.0752 39.4214C85.5044 41.9621 87.6143 44.0534 90.1676 45.4601C92.8082 46.9052 95.7765 47.6457 98.7865 47.6103C100.792 47.7534 102.804 47.4353 104.667 46.6806C106.531 45.9258 108.197 44.7544 109.538 43.2561V47.1086H118.945V0H109.09V16.7541C106.177 14.4464 102.574 13.1843 98.8582 13.1703C95.8482 13.135 92.8799 13.8755 90.2392 15.3206C87.6191 16.7456 85.4615 18.8907 84.0214 21.5026C82.5173 24.2455 81.7574 27.3344 81.8174 30.462" fill="white"/>
</svg>
