<svg width="140" height="64" viewBox="0 0 140 64" fill="none" xmlns="http://www.w3.org/2000/svg">
<path d="M49.0685 14.0732V34.7701C49.0685 40.8873 44.7527 45.2781 38.5981 45.2781C35.4269 45.2781 31.918 43.8896 29.4224 41.9381L33.2127 32.4434C33.7757 33.907 34.4324 35.6708 36.1775 35.6708C37.9789 35.6708 38.129 33.6255 38.129 32.3308V14.0732H49.0685Z" fill="white"/>
<path d="M63.4231 14.0732L66.8382 22.1043H67.1572C67.4762 21.1285 67.7764 20.1528 68.1705 19.2146L70.3659 14.0732H82.9379L72.43 31.5427V44.7902H61.5092V31.5427L50.7948 14.0732H63.4231Z" fill="white"/>
<path d="M83.9512 33.7944L84.5141 34.2448C86.5031 35.8022 88.9049 37.0594 91.4756 37.0594C92.5827 37.0594 94.3278 36.609 94.3278 35.2205C94.3278 33.8319 92.8642 33.7194 91.8509 33.5129L89.618 33.1001C85.2647 32.3308 81.5869 29.7601 81.5869 24.9565C81.5869 17.6572 88.2294 13.5853 94.9095 13.5853C98.4184 13.5853 101.627 14.4485 104.648 16.2686L101.627 24.1308C99.7131 22.8361 97.5553 21.8041 95.1534 21.8041C94.1777 21.8041 92.7516 22.1793 92.7516 23.4366C92.7516 24.5812 94.1402 24.7313 94.9846 24.9377L97.5177 25.5006C102.246 26.5514 105.661 29.0846 105.661 34.301C105.661 41.6379 98.9813 45.2594 92.3388 45.2594C88.4734 45.2594 83.9887 44.2086 80.5173 42.4447L83.9512 33.7944Z" fill="white"/>
<path d="M108.983 14.0732H119.866L119.622 27.3958H119.866C120.11 26.1386 120.804 25.0315 121.405 23.9244L126.79 14.0732H138.968L129.361 29.0283L140 44.7902H127.053L121.761 35.5019C121.104 34.3198 120.129 33.1752 119.885 31.918H119.641L119.885 44.7902H109.001V14.0732H108.983Z" fill="white"/>
<path d="M10.827 7.63703C10.3766 7.6558 9.98259 7.80591 9.70113 8.10614C9.41966 8.3876 9.26955 8.80042 9.28831 9.25076C9.30708 9.94504 9.68236 10.7144 10.3016 11.3148C11.3711 12.3469 12.7785 12.5533 13.529 11.7839C13.8105 11.4837 13.9418 11.1084 13.9418 10.6768C13.9418 10.0013 13.5853 9.21323 12.9286 8.57525C12.3094 7.95603 11.5213 7.61827 10.827 7.63703Z" fill="white"/>
<path d="M15.2178 63.6108C15.6681 61.9595 15.7995 60.2332 15.7995 60.2332C15.8558 59.7641 15.8933 59.295 15.9121 58.8071C16.1935 52.9902 14.1107 45.766 9.8137 39.9866C5.46039 34.1134 2.70205 29.8539 2.70205 26.2887C2.70205 22.7235 5.31028 21.0159 7.14918 20.6031C9.00683 20.1903 13.8668 20.1903 15.6306 18.6892C17.3757 17.2256 18.3702 15.124 18.1638 12.5345C17.9761 9.92628 17.3382 4.24072 8.53773 3.8279C5.44163 3.69656 2.19542 4.95376 0 6.64254V2.0453C2.00777 1.0508 5.02882 0 8.87549 0C16.1372 0 19.4773 4.65353 19.4773 4.65353C19.4773 4.65353 23.7931 6.43614 26.7953 8.7629C29.8164 11.0897 32.2745 13.6228 32.4809 13.9606C32.6873 14.2984 33.2315 15.6118 31.3926 16.2123C29.5349 16.8315 25.8571 17.507 22.0855 17.507C22.0855 17.507 19.6274 21.8979 15.7244 23.2489C11.8215 24.6187 7.29929 23.3052 7.09288 26.8704C6.96153 29.3285 9.13818 32.2745 9.96381 33.4379C10.7894 34.6013 20.1528 43.9271 19.6086 58.2254C19.496 61.3028 19.0082 63.592 19.0082 63.592L15.2178 63.6108ZM22.3107 13.9043C22.3107 13.9043 24.431 14.1858 26.2136 14.2421C27.9962 14.3171 27.7148 13.4915 27.7148 13.4915C26.8892 12.816 22.0292 10.0764 22.0292 10.0764C21.3537 11.8402 22.3107 13.9043 22.3107 13.9043Z" fill="white"/>
</svg>
