<svg width="656" height="820" viewBox="0 0 656 820" fill="none" xmlns="http://www.w3.org/2000/svg">
<path d="M360.722 817.994L360.714 817.995C255.88 825.437 148.912 749.533 79.8328 661.45C45.6 617.78 21.2293 571.077 9.46805 527.86C-2.30015 484.617 -1.39998 445.047 14.6245 415.459C30.645 386.121 62.2337 366.533 101.19 343.263C102.589 342.427 103.998 341.586 105.415 340.74C143.34 318.11 187.503 291.758 229.793 249.703C261.655 218.018 292.553 177.391 322.303 138.273C333.456 123.609 344.447 109.157 355.268 95.4674C375.145 70.3195 394.446 47.7381 413.163 31.0074C431.909 14.2508 449.881 3.53602 467.094 1.80366L467.101 1.80293L467.108 1.80213C484.112 -0.0765689 500.699 6.88766 516.63 20.6705C532.567 34.4592 547.718 54.9695 561.764 79.8654C589.85 129.648 613.333 196.638 629.826 261.444C662.222 390.986 667.105 511.288 617.711 615.968L617.707 615.977C568.778 721.431 465.525 811.131 360.722 817.994Z" stroke="#D9B033" stroke-width="3"/>
</svg>
