<svg width="615" height="770" viewBox="0 0 615 770" fill="none" xmlns="http://www.w3.org/2000/svg">
<path d="M338.171 768.025L338.163 768.026C239.928 775.011 139.672 703.765 74.9177 621.062C42.8306 580.062 19.9894 536.218 8.96692 495.65C-2.06296 455.054 -1.21438 417.922 13.795 390.166C28.8006 362.645 58.389 344.264 94.9146 322.41C96.2272 321.625 97.5483 320.835 98.8777 320.041C134.432 298.791 175.843 274.04 215.498 234.541C245.373 204.783 274.346 166.626 302.239 129.891C312.693 116.122 322.996 102.554 333.138 89.702C351.772 66.0883 369.863 44.8891 387.403 29.1841C404.973 13.4531 421.804 3.40829 437.91 1.78466L437.917 1.78393L437.925 1.78313C453.83 0.022937 469.355 6.54612 484.278 19.4784C499.208 32.4166 513.406 51.6663 526.571 75.0396C552.896 121.776 574.908 184.67 590.369 245.518C620.74 367.155 625.314 480.099 579.019 578.371L579.015 578.379C533.153 677.385 436.377 761.583 338.171 768.025Z" stroke="#111111" stroke-width="3"/>
</svg>
