<svg width="185" height="180" viewBox="0 0 185 180" fill="none" xmlns="http://www.w3.org/2000/svg">
<g clip-path="url(#clip0_1384_24845)">
<path d="M173.659 66.1881C185.344 72.2419 188.165 85.9639 180.106 97.2643L131.353 167.489C123.294 178.789 107.58 183.228 96.2984 177.578L24.5782 141.255C12.8935 135.202 10.0731 121.48 18.1315 110.179L67.288 39.9549C75.3464 28.6545 91.0604 24.215 102.342 29.8652L173.659 66.1881Z" fill="#D9B033"/>
<path d="M179.703 70.6278C180.106 71.0314 180.106 71.435 180.509 71.435C180.912 72.2422 181.315 72.6457 182.121 73.4529C182.524 73.8565 182.524 74.2601 182.927 74.6637L169.227 47.6233C169.227 47.2197 168.824 47.2197 168.824 46.8161C168.824 46.4126 168.421 46.4126 168.421 46.009C168.018 45.2018 167.616 44.7982 166.81 43.991L166.407 43.5874L166.004 43.1839C165.601 42.3767 164.795 41.9731 163.989 41.5695C163.586 41.1659 163.586 41.1659 163.183 40.7623C162.378 39.9552 161.169 39.148 159.96 38.7444L88.6428 2.42152C87.837 2.01794 86.6282 1.61435 85.8224 1.21076C85.4195 1.21076 85.4195 1.21076 85.0165 0.807175C84.2107 0.403587 83.0019 0.403587 82.1961 0C80.5844 0 79.3756 0 78.1669 0H77.7639C77.7639 0 77.7639 0 77.361 0C76.1523 0 75.3464 0 74.1376 0H73.7347C72.9289 0 72.123 0.403587 71.3172 0.403587H70.9143H70.5113C69.7055 0.807175 68.8997 0.807175 68.0938 1.21076H67.6909C66.885 1.61435 65.6763 2.01794 64.8704 2.42152H64.4675C64.4675 2.42152 64.0646 2.42152 64.0646 2.82511C62.8558 4.03587 61.6471 4.84305 60.4383 5.24664C60.0354 5.65022 59.6325 5.65022 59.2295 6.05381C58.8266 6.4574 58.8266 6.4574 58.4237 6.86099C58.0208 7.26457 57.6178 7.66816 57.2149 7.66816C56.812 8.07175 56.812 8.07175 56.4091 8.47534C56.0062 8.87892 55.6032 9.28251 55.2003 9.6861C54.7974 10.0897 54.7974 10.0897 54.3945 10.4933C53.9915 11.3004 53.1857 11.704 52.7828 12.5112L4.43214 82.7354C-0.805844 90 -1.20877 98.4753 2.01461 104.933L15.714 132.377C12.4906 125.919 12.8935 117.444 18.1315 110.179L67.288 39.9552C67.6909 39.148 68.4967 38.7444 68.8997 37.9372C68.8997 37.5336 69.3026 37.5336 69.3026 37.5336C69.7055 37.13 70.1084 36.7265 70.5113 36.3229C70.9143 35.9193 70.9143 35.9193 71.3172 35.5157C71.7201 35.1121 72.123 34.7085 72.526 34.3049C72.9289 33.9013 72.9289 33.9013 73.3318 33.4978C73.7347 33.0942 74.1376 33.0942 74.5406 32.6906C75.7493 31.8834 76.5552 31.4798 77.7639 30.6726C78.1669 30.6726 78.1669 30.2691 78.5698 30.2691C79.3756 29.8655 80.5844 29.4619 81.3902 29.0583H81.7932C82.1961 28.6547 83.0019 28.2511 84.2107 28.2511C84.6136 28.2511 84.6136 28.2511 85.0165 27.8475C85.8224 27.8475 86.6282 27.4439 87.4341 27.4439C87.837 27.4439 87.837 27.4439 88.2399 27.4439C89.4487 27.4439 90.2545 27.4439 91.4633 27.4439H91.8662C93.075 27.4439 94.6867 27.4439 95.8954 27.8475C95.8954 27.8475 95.8954 27.8475 96.2983 27.8475C96.7013 27.8475 97.91 28.2511 98.7159 28.2511C99.1188 28.2511 99.1188 28.2511 99.5217 28.6547C100.328 29.0583 101.536 29.4619 102.342 29.8655L173.659 66.1883C174.868 66.5919 176.077 67.3991 176.883 68.2063C177.286 68.6099 177.286 68.6099 177.689 69.0135C178.494 69.417 179.3 69.8206 179.703 70.6278Z" fill="#856811"/>
<path d="M140.217 97.2645L132.158 93.2286C126.115 89.9999 122.891 92.0178 120.071 96.0537L114.027 104.933L128.935 112.601L117.653 125.516L104.76 118.655L80.1815 153.767L64.8704 145.695L89.4487 110.583L76.5552 103.722L86.2253 89.9999L99.1188 96.8609L105.968 86.7712C114.027 75.0672 126.517 72.6456 137.799 78.6994C143.44 81.5246 147.872 84.3497 149.081 85.1568L140.217 97.2645Z" fill="white"/>
</g>
<defs>
<clipPath id="clip0_1384_24845">
<rect width="184.941" height="180" fill="white"/>
</clipPath>
</defs>
</svg>
