<svg width="160" height="58" viewBox="0 0 160 58" fill="none" xmlns="http://www.w3.org/2000/svg">
<path d="M73.5913 32.3627C73.5913 32.3627 72.5236 32.6827 71.0274 32.3627C69.6388 32.0427 68.2502 31.5084 68.2502 30.1198V17.3033H73.697L72.415 10.5746H68.2492V0.640991L58.1042 2.13626V18.3709C55.968 12.3898 50.2002 8.01069 43.4715 8.01069C36.8495 8.01069 31.1884 12.1765 28.9455 18.0509V13.3518C28.9455 13.3518 26.8092 8.65263 16.769 8.65263C14.4194 8.65263 12.1765 8.97263 10.1469 9.40026V0.640991L0 2.13626V38.6647H10.1469V16.8757C12.3898 16.448 13.8851 16.3414 15.9147 16.769C17.4099 16.9823 18.6919 17.6233 18.6919 19.6529V38.7714H28.8388V29.1588C31.0817 35.0332 36.7428 39.1991 43.3648 39.1991C50.0936 39.1991 55.8613 34.9266 57.9976 28.9455V35.9952C57.9976 35.9952 61.8424 38.7724 67.9312 38.7724C74.0199 38.7724 75.3008 37.8114 75.3008 37.8114L73.5913 32.3627ZM43.4715 30.7607C39.0924 30.7607 37.1695 27.1292 37.1695 23.6044C37.1695 20.0795 39.0924 16.448 43.4715 16.448C47.8507 16.448 49.7736 20.0795 49.7736 23.6044C49.7726 27.1292 47.8507 30.7607 43.4715 30.7607Z" fill="#FFA726"/>
<path d="M93.4584 0C90.5745 0 88.225 2.34958 88.225 5.23345C88.225 8.11733 90.5745 10.4669 93.4584 10.4669C96.3423 10.4669 98.6919 8.11733 98.6919 5.23345C98.6919 2.34958 96.3413 0 93.4584 0ZM88.3307 38.1304H98.4776V12.8175H88.3307V38.1304ZM75.6208 38.0238H85.7678V0.64097L75.6208 2.13624V38.0238ZM144.513 32.1493C141.522 31.4017 139.92 29.9064 139.28 27.7702H160V24.7796C160 14.3127 152.844 8.01067 144.62 8.01067C138.104 8.01067 132.443 12.0698 130.2 17.8376V13.3518C130.2 13.3518 126.462 8.86594 117.704 8.4383C108.945 8.01067 101.255 9.82691 101.255 9.82691V38.559H111.402V16.8766C113.751 16.449 115.14 16.3423 117.169 16.6633C118.665 16.8766 119.947 17.5176 119.947 19.6538V38.559H130.094V29.2655C132.336 35.0332 137.998 39.0924 144.513 39.0924C150.281 39.0924 154.447 37.4904 157.33 33.8589L153.806 30.4407C150.387 32.6836 146.435 32.577 144.513 32.1493ZM144.62 15.808C148.679 15.808 150.387 18.7985 150.601 21.3624H138.424C138.639 18.6919 140.56 15.808 144.62 15.808Z" fill="#6F9FEC"/>
<path d="M0.0940552 52.257L1.27418 52.0717C1.34012 52.545 1.52533 52.9067 1.82787 53.1588C2.13042 53.4109 2.55418 53.537 3.09721 53.537C3.64509 53.537 4.05139 53.4254 4.31709 53.2024C4.58278 52.9794 4.71466 52.7176 4.71466 52.417C4.71466 52.1474 4.59733 51.935 4.36363 51.7808C4.20072 51.6751 3.79345 51.5394 3.14375 51.3765C2.26909 51.1554 1.66206 50.9643 1.3246 50.8034C0.987146 50.6424 0.730176 50.4194 0.555631 50.1343C0.381085 49.8492 0.293813 49.534 0.293813 49.1898C0.293813 48.8756 0.36557 48.5857 0.509085 48.318C0.652601 48.0504 0.848479 47.8283 1.09575 47.6519C1.28096 47.5151 1.53406 47.3988 1.85502 47.3037C2.17599 47.2087 2.51927 47.1612 2.88581 47.1612C3.43854 47.1612 3.92339 47.2407 4.34036 47.3997C4.75733 47.5588 5.06666 47.774 5.26545 48.0465C5.46424 48.319 5.60096 48.6817 5.6766 49.1374L4.50909 49.2945C4.45575 48.9319 4.30254 48.6487 4.04848 48.446C3.79442 48.2434 3.43563 48.1416 2.97115 48.1416C2.42327 48.1416 2.03248 48.2317 1.79781 48.4131C1.56315 48.5944 1.44678 48.8068 1.44678 49.0492C1.44678 49.2043 1.49527 49.343 1.59224 49.4671C1.68921 49.5951 1.84145 49.7018 2.04993 49.7852C2.16921 49.8288 2.52024 49.9306 3.10399 50.0897C3.9486 50.3146 4.53721 50.4999 4.87078 50.6434C5.20436 50.7869 5.46618 50.9954 5.65624 51.2698C5.8463 51.5442 5.94133 51.8836 5.94133 52.2909C5.94133 52.6885 5.82496 53.0628 5.59321 53.4148C5.36145 53.7668 5.0269 54.0383 4.5886 54.2303C4.1503 54.4223 3.65672 54.5183 3.10399 54.5183C2.18957 54.5183 1.49236 54.3282 1.01236 53.9481C0.532358 53.568 0.226904 53.0036 0.0940552 52.257Z" fill="#FFA726"/>
<path d="M12.5178 54.3583V47.3183H13.5855V48.3064C13.8065 47.9622 14.1004 47.6838 14.4669 47.4744C14.8335 47.2649 15.2514 47.1592 15.7198 47.1592C16.2415 47.1592 16.6691 47.2678 17.0027 47.4841C17.3362 47.7003 17.5719 48.0038 17.7086 48.3927C18.2652 47.5704 18.9905 47.1602 19.8827 47.1602C20.5809 47.1602 21.1181 47.3532 21.4933 47.7401C21.8686 48.127 22.0567 48.7224 22.0567 49.5263V54.3583H20.8698V49.9238C20.8698 49.4468 20.831 49.1025 20.7535 48.8931C20.6759 48.6836 20.5353 48.5139 20.3326 48.3859C20.1299 48.2579 19.8914 48.1939 19.617 48.1939C19.1224 48.1939 18.7113 48.3588 18.3845 48.6875C18.0577 49.0162 17.8938 49.5437 17.8938 50.2681V54.3583H16.7011V49.7842C16.7011 49.2538 16.6041 48.8562 16.4092 48.5915C16.2143 48.3268 15.8962 48.1939 15.455 48.1939C15.1195 48.1939 14.8082 48.2822 14.5241 48.4586C14.24 48.6351 14.0325 48.894 13.9045 49.2344C13.7765 49.5748 13.7125 50.0654 13.7125 50.7064V54.3592H12.5178V54.3583Z" fill="#FFA726"/>
<path d="M33.5797 53.4904C33.1375 53.8657 32.7118 54.1314 32.3035 54.2855C31.8953 54.4397 31.456 54.5173 30.9877 54.5173C30.2148 54.5173 29.6194 54.3282 29.2044 53.951C28.7894 53.5738 28.5809 53.0899 28.5809 52.5023C28.5809 52.158 28.6594 51.8429 28.8165 51.5578C28.9736 51.2727 29.1792 51.0438 29.4332 50.8712C29.6873 50.6986 29.9734 50.5687 30.2914 50.4805C30.5261 50.4184 30.8791 50.3592 31.3523 50.3011C32.3161 50.1857 33.025 50.0489 33.4798 49.8899C33.4837 49.727 33.4866 49.6223 33.4866 49.5786C33.4866 49.0928 33.3741 48.7505 33.1481 48.5508C32.8437 48.2812 32.3898 48.1464 31.7896 48.1464C31.2281 48.1464 30.8141 48.2453 30.5464 48.4412C30.2788 48.6371 30.082 48.9862 29.953 49.4855L28.7864 49.3265C28.8921 48.8271 29.0677 48.4237 29.3101 48.1163C29.5525 47.8089 29.9045 47.5723 30.3641 47.4075C30.8238 47.2426 31.3561 47.1592 31.9612 47.1592C32.5624 47.1592 33.0512 47.23 33.4264 47.3716C33.8017 47.5132 34.0781 47.6906 34.2546 47.9049C34.4311 48.1192 34.5552 48.3898 34.626 48.7166C34.6657 48.9192 34.6861 49.2868 34.6861 49.8172V51.4085C34.6861 52.5178 34.7113 53.2189 34.7627 53.5127C34.8141 53.8065 34.914 54.0887 35.0643 54.3583H33.8182C33.6951 54.111 33.6155 53.822 33.5797 53.4904ZM33.4798 50.8257C33.0463 51.0022 32.3966 51.1525 31.5307 51.2766C31.04 51.3474 30.6929 51.4269 30.4902 51.5151C30.2875 51.6034 30.1295 51.7333 30.0199 51.903C29.9103 52.0727 29.8541 52.2618 29.8541 52.4693C29.8541 52.7874 29.9743 53.0531 30.2158 53.2645C30.4572 53.4758 30.8092 53.5825 31.2727 53.5825C31.7324 53.5825 32.1416 53.4817 32.4994 53.2809C32.8572 53.0802 33.12 52.8048 33.2878 52.4557C33.4158 52.1862 33.4798 51.7886 33.4798 51.263V50.8257Z" fill="#FFA726"/>
<path d="M41.6815 54.3583V47.3183H42.7549V48.3859C43.0293 47.8865 43.2815 47.5578 43.5142 47.3978C43.7469 47.2378 44.001 47.1592 44.2802 47.1592C44.6827 47.1592 45.0909 47.2872 45.5069 47.5432L45.0958 48.6506C44.8039 48.478 44.512 48.3917 44.2211 48.3917C43.9602 48.3917 43.7265 48.4703 43.5181 48.6274C43.3096 48.7845 43.1622 49.0017 43.0739 49.28C42.9411 49.7047 42.8752 50.1682 42.8752 50.6725V54.3583H41.6815Z" fill="#FFA726"/>
<path d="M53.9791 53.2917L54.1517 54.3457C53.8162 54.4165 53.5156 54.4514 53.2499 54.4514C52.8164 54.4514 52.4809 54.3826 52.2424 54.2459C52.0038 54.1091 51.8361 53.9288 51.7381 53.7057C51.6402 53.4827 51.5927 53.0134 51.5927 52.2968V48.2464H50.718V47.3184H51.5927V45.5758L52.7796 44.8602V47.3193H53.9791V48.2473H52.7796V52.3637C52.7796 52.704 52.8 52.9232 52.8426 53.0202C52.8853 53.1171 52.9532 53.1947 53.0482 53.2519C53.1432 53.3091 53.279 53.3382 53.4555 53.3382C53.5883 53.3382 53.7629 53.3227 53.9791 53.2917Z" fill="#FFA726"/>
<path d="M68.7583 52.257L69.9384 52.0717C70.0044 52.545 70.1896 52.9067 70.4921 53.1588C70.7947 53.4109 71.2184 53.537 71.7615 53.537C72.3093 53.537 72.7156 53.4254 72.9813 53.2024C73.247 52.9794 73.3789 52.7176 73.3789 52.417C73.3789 52.1474 73.2616 51.935 73.0279 51.7808C72.865 51.6751 72.4577 51.5394 71.808 51.3765C70.9333 51.1554 70.3263 50.9643 69.9889 50.8034C69.6514 50.6424 69.3944 50.4194 69.2199 50.1343C69.0453 49.8492 68.9581 49.534 68.9581 49.1898C68.9581 48.8756 69.0298 48.5857 69.1733 48.318C69.3168 48.0504 69.5127 47.8283 69.76 47.6519C69.9452 47.5151 70.1983 47.3988 70.5193 47.3037C70.8402 47.2087 71.1835 47.1612 71.5501 47.1612C72.1028 47.1612 72.5876 47.2407 73.0046 47.3997C73.4216 47.5588 73.7309 47.774 73.9297 48.0465C74.1285 48.319 74.2652 48.6817 74.3408 49.1374L73.1743 49.2965C73.121 48.9338 72.9678 48.6507 72.7137 48.448C72.4596 48.2453 72.1008 48.1435 71.6364 48.1435C71.0885 48.1435 70.6977 48.2337 70.463 48.415C70.2284 48.5963 70.112 48.8087 70.112 49.0511C70.112 49.2063 70.1605 49.345 70.2575 49.4691C70.3544 49.5971 70.5067 49.7037 70.7152 49.7871C70.8344 49.8308 71.1855 49.9326 71.7692 50.0916C72.6138 50.3166 73.2024 50.5018 73.536 50.6453C73.8696 50.7888 74.1314 50.9973 74.3215 51.2717C74.5115 51.5462 74.6065 51.8856 74.6065 52.2928C74.6065 52.6904 74.4902 53.0647 74.2584 53.4167C74.0267 53.7687 73.6921 54.0402 73.2538 54.2322C72.8155 54.4242 72.3219 54.5202 71.7692 54.5202C70.8548 54.5202 70.1576 54.3302 69.6776 53.95C69.1976 53.5699 68.8902 53.0036 68.7583 52.257Z" fill="#FFA726"/>
<path d="M81.182 54.3583V44.641H82.3747V48.128C82.9313 47.4822 83.6344 47.1603 84.4829 47.1603C85.0046 47.1603 85.4574 47.2631 85.8414 47.4686C86.2254 47.6742 86.5008 47.9583 86.6666 48.32C86.8324 48.6817 86.9149 49.2083 86.9149 49.8977V54.3593H85.7221V49.8977C85.7221 49.3014 85.5932 48.8669 85.3342 48.5954C85.0753 48.3239 84.7098 48.1881 84.2375 48.1881C83.8836 48.1881 83.551 48.2803 83.2397 48.4635C82.9284 48.6468 82.7064 48.8951 82.5735 49.2092C82.4407 49.5234 82.3747 49.9559 82.3747 50.5086V54.3603H81.182V54.3583Z" fill="#FFA726"/>
<path d="M93.4468 50.8393C93.4468 49.536 93.8094 48.5702 94.5338 47.9428C95.1399 47.4211 95.8768 47.1603 96.7476 47.1603C97.7154 47.1603 98.5067 47.4774 99.1205 48.1116C99.7343 48.7457 100.042 49.6223 100.042 50.7394C100.042 51.6451 99.9059 52.3579 99.6344 52.8776C99.3629 53.3974 98.9673 53.7998 98.4475 54.0878C97.9278 54.3758 97.3615 54.5183 96.7476 54.5183C95.7624 54.5183 94.9653 54.2022 94.3583 53.57C93.7513 52.9377 93.4468 52.0282 93.4468 50.8393ZM94.6735 50.8393C94.6735 51.7411 94.8703 52.416 95.263 52.864C95.6557 53.312 96.1513 53.537 96.7476 53.537C97.3401 53.537 97.8327 53.312 98.2254 52.8611C98.6182 52.4102 98.815 51.7237 98.815 50.7996C98.815 49.9288 98.6172 49.2694 98.2216 48.8204C97.8259 48.3714 97.3343 48.1474 96.7467 48.1474C96.1503 48.1474 95.6557 48.3705 95.2621 48.8165C94.8684 49.2626 94.6735 49.9375 94.6735 50.8393Z" fill="#FFA726"/>
<path d="M106.6 57.0569V47.3192H107.687V48.2337C107.943 47.8758 108.233 47.6072 108.556 47.4278C108.879 47.2485 109.269 47.1592 109.729 47.1592C110.33 47.1592 110.861 47.3144 111.32 47.6237C111.78 47.9331 112.127 48.3694 112.361 48.9328C112.594 49.4962 112.712 50.1139 112.712 50.7859C112.712 51.5064 112.583 52.1551 112.324 52.7311C112.065 53.3071 111.69 53.7493 111.197 54.0567C110.704 54.3641 110.187 54.5173 109.643 54.5173C109.245 54.5173 108.888 54.4339 108.572 54.2652C108.256 54.0965 107.996 53.8851 107.793 53.6291V57.056H106.6V57.0569ZM107.68 50.879C107.68 51.7847 107.863 52.4548 108.23 52.8872C108.596 53.3197 109.04 53.5369 109.562 53.5369C110.093 53.5369 110.546 53.3129 110.925 52.864C111.303 52.415 111.491 51.7207 111.491 50.7791C111.491 49.8822 111.307 49.2101 110.937 48.7641C110.568 48.318 110.127 48.095 109.615 48.095C109.106 48.095 108.656 48.3326 108.266 48.8077C107.875 49.2829 107.68 49.9723 107.68 50.879Z" fill="#FFA726"/>
<path d="M119.31 57.0569V47.3192H120.397V48.2337C120.653 47.8758 120.943 47.6072 121.265 47.4278C121.588 47.2485 121.979 47.1592 122.439 47.1592C123.04 47.1592 123.57 47.3144 124.03 47.6237C124.49 47.9331 124.837 48.3694 125.071 48.9328C125.304 49.4962 125.422 50.1139 125.422 50.7859C125.422 51.5064 125.293 52.1551 125.034 52.7311C124.775 53.3071 124.4 53.7493 123.907 54.0567C123.414 54.3641 122.896 54.5173 122.352 54.5173C121.955 54.5173 121.598 54.4339 121.282 54.2652C120.966 54.0965 120.706 53.8851 120.503 53.6291V57.056H119.31V57.0569ZM120.39 50.879C120.39 51.7847 120.573 52.4548 120.94 52.8872C121.306 53.3197 121.75 53.5369 122.272 53.5369C122.802 53.5369 123.256 53.3129 123.634 52.864C124.013 52.415 124.201 51.7207 124.201 50.7791C124.201 49.8822 124.016 49.2101 123.647 48.7641C123.278 48.318 122.837 48.095 122.324 48.095C121.816 48.095 121.366 48.3326 120.976 48.8077C120.585 49.2829 120.39 49.9723 120.39 50.879Z" fill="#FFA726"/>
<path d="M132.024 46.0131V44.641H133.217V46.0131H132.024ZM132.024 54.3583V47.3183H133.217V54.3583H132.024Z" fill="#FFA726"/>
<path d="M140.193 54.3583V47.3183H141.266V48.319C141.783 47.5461 142.53 47.1592 143.507 47.1592C143.932 47.1592 144.322 47.2358 144.678 47.3881C145.034 47.5403 145.3 47.7401 145.477 47.9883C145.653 48.2366 145.777 48.5294 145.848 48.8698C145.892 49.0909 145.914 49.4768 145.914 50.0295V54.3583H144.721V50.0761C144.721 49.5903 144.675 49.2266 144.582 48.9852C144.489 48.7437 144.324 48.5517 144.088 48.4082C143.853 48.2647 143.574 48.1929 143.256 48.1929C142.748 48.1929 142.309 48.3549 141.94 48.6768C141.572 48.9988 141.387 49.6116 141.387 50.5134V54.3583H140.193Z" fill="#FFA726"/>
<path d="M152.684 54.9421L153.843 55.1147C153.892 55.4725 154.027 55.7334 154.248 55.8973C154.543 56.1183 154.948 56.2289 155.461 56.2289C156.014 56.2289 156.439 56.1183 156.74 55.8973C157.04 55.6762 157.244 55.3668 157.35 54.9692C157.412 54.7268 157.44 54.2158 157.436 53.4381C156.914 54.0519 156.265 54.3593 155.487 54.3593C154.519 54.3593 153.77 54.0102 153.24 53.312C152.711 52.6139 152.445 51.777 152.445 50.7996C152.445 50.1276 152.566 49.5079 152.81 48.9406C153.053 48.3734 153.405 47.9341 153.867 47.6248C154.328 47.3154 154.871 47.1603 155.494 47.1603C156.325 47.1603 157.009 47.4958 157.549 48.1678V47.3193H158.649V53.4042C158.649 54.4999 158.538 55.2766 158.315 55.7343C158.092 56.192 157.738 56.5528 157.254 56.8185C156.77 57.0842 156.175 57.216 155.468 57.216C154.628 57.216 153.95 57.0269 153.432 56.6497C152.914 56.2725 152.666 55.7023 152.684 54.9421ZM153.671 50.7132C153.671 51.6374 153.854 52.3103 154.221 52.7351C154.587 53.1598 155.047 53.3712 155.599 53.3712C156.147 53.3712 156.607 53.1598 156.978 52.738C157.35 52.3162 157.535 51.6539 157.535 50.753C157.535 49.8909 157.344 49.2412 156.962 48.8039C156.58 48.3666 156.119 48.1474 155.58 48.1474C155.05 48.1474 154.599 48.3627 154.227 48.7942C153.856 49.2257 153.671 49.8648 153.671 50.7132Z" fill="#FFA726"/>
</svg>
